<svg xmlns="http://www.w3.org/2000/svg" xmlns:xlink="http://www.w3.org/1999/xlink" viewBox="0 0 294 513"><defs/><defs><path id="a" d="M0 0h294v513H0z"/></defs><g fill="none" fill-rule="evenodd"><mask id="b" fill="#fff"><use xlink:href="#a"/></mask><g mask="url(#b)" opacity=".5"><g fill-opacity=".38"><path fill="#000" fill-rule="nonzero" d="M31.02 124.03c2.63.31 5.3.03 7.82-.83 1.67 5.61 4.5 10.79 10.2 12.9 5.02 1.86 10.55-.53 14.04-4.22 3.92-4.15 4.7-9.92 4.25-15.36-.8-9.5-4.58-23.63-14.19-28.1-4.42-2.05-9.18-.93-12.63 1.73-3.46 2.66-5.29 9.08-4.84 15.08l-.91.38c-1.48.6-2.97 1.19-4.4 1.91-3.21 1.62-6.4 3.94-7.16 7.67-.37 1.87.67 4.36 1.84 5.95 1.4 1.95 3.7 2.63 5.98 2.89zM259.92 118.94c-4.3 1.2-9.22 6-12.65 8.41l-.95-.77c.82-1.5 2.92-3.73 4-5.06 3.07-3.8 6.76-7.9 7.72-10.96.95-3.04-1.59-5.97-5.98-4.67-4.39 1.3-15.78 13.2-15.78 13.2l-1.25-1c.35-.56 3.6-5.68 6.01-8.97 2.07-2.86 3.32-6.97.97-8.88-2.34-1.91-6.5.45-8.78 2.63-4.15 3.96-15.4 17.27-21.95 26.05-.85-4.5-1-9.5-1.3-11.83-.27-2.46-1.63-4.68-4.57-3.91-2.93.77-3.98 6.07-4.84 13.42-.86 7.34.16 17.33-.63 26.1-4.94 11.5-8.5 25.81-11.32 37.35-3.49 14.3-5.83 24.66-6.51 40.04-2.22-3.14-7.34-11.04-9.67-14.1-5.47-7.16-10.53-14.6-15.95-21.81-10.4-13.73-22.21-26.3-38.43-33.4-15.67-6.86-32.96-8.55-49.98-8.88-15.8-.27-31.62.44-47.35 2.14-9.33 1.06-24.43 3.15-37.09 9.17-10.1 4.8-19.32 12.26-27.82 19.38-17.1 14.28-38.8 37.31-44.24 46.02-5.45 8.7-9.75 18.18-7.62 31.12 2.13 12.93 14.31 27.04 22.88 33.68 8.9 6.92 25.9 20.34 37.88 25.34 12 5 25.1 7.37 33.65 3.06.69-.3 1.28-.8 1.7-1.41.24 2.26.48 4.53.79 6.79 2.85 22.54 5.73 45 7.72 67.65 1.97 22.37 5.14 44.6 7.27 66.96 1.18 12.4 6.04 52.95 6.04 52.95-2.88 3.2-6.69 6.32-9.87 9.23-2.7 2.47-1.98 6.83 2.45 6.36l56.13-5.74c2.95-.31 5.25-1.4 5.03-3.9-1.6-16.79-2.82-32.88-4.05-49.7-.64-8.79-5.8-50.32-6.18-59.45-.37-8.88-3.84-37.88-4.86-46.68-2.1-18.27-5.35-79.26-9.31-97.47a166.09 166.09 0 0134.56-4.96c1.94 16.64 9.85 69.34 11.81 87.28 3.9 35.67 7.74 71.33 11.85 106.97 2.23 19.31 5.26 52.43 5.6 55.66.34 3.23 1.36 7 5.89 6.52 4.53-.48 18.19-2.15 26.93-2.83 9.45-.72 18.04-2.36 27.5-2.9 2.84-.15 4.96-4.17 2.34-6.1a185.45 185.45 0 00-12.61-8.7c-3.77-37.94-9.18-77.19-13.08-115.1-1.97-19.1-4.18-38.17-7.24-57.13-3.07-18.96-4.62-38.11-6.88-57.17a822.18 822.18 0 00-4.54-31.45c-.25-1.59-.48-3.17-.71-4.76 15.42 25.2 34.79 47.02 43.85 51.85 11.69 6.22 33.25 2.32 40.28-6.68 7.02-9 11.6-24.36 12.48-36.2 1.05-14.64 1.09-20.5 3.26-35.08 2.25-15.12 5.04-25.83 9.12-40.58.62-2.25 1.27-4.49 1.95-6.72 2.96-8.6 13.43-27.52 19.31-34.49 2.03-2.45-.13-6.68-2.98-5.89zm-316.18 137.6c-.42-5.05 8.94-15.7 17.57-23.14 8.62-7.44 23.24-19.66 29.76-24.55a529.02 529.02 0 015.4 54.18c-6.1 6.6-10.87 14.36-12.83 22.95-11.16-2.07-39.5-24.4-39.9-29.45z"/></g><g stroke-linecap="round" stroke-linejoin="round"><path stroke="#181818" stroke-width="6" d="M-3.5 262.5c1.03-2.1 11.49-13.27 15.8-9.85C16.77 256.23 1.96 268-.25 271.52c4.59-4.87 14.1-14.94 17.35-11.22 3.26 3.72-3.4 8.93-6.67 12.55-4.12 4.56-6.63 8.93-10.3 13.49 1.97-2.92 9.06-13.37 13.4-11.54 6.01 2.53-3.46 10.87-5.18 13.48C3.03 296.3.38 304.9-.95 317.25M216.02 158.17l6.63 2.36M220.08 129.54h0a8.98 8.98 0 018.93 9.08 8.83 8.83 0 01-.92 3.75M53.24 99.46h0a57.57 57.57 0 015.4 17.61h0c-2.61.8-5.3 1.37-8.02 1.7"/></g></g></g></svg>