<?xml version="1.0" encoding="UTF-8"?>
<svg width="357px" height="612px" viewBox="0 0 357 612" version="1.1" xmlns="http://www.w3.org/2000/svg" xmlns:xlink="http://www.w3.org/1999/xlink">
    <title>Jake Search</title>
    <defs>
        <rect id="path-1" x="0" y="0" width="357" height="612"></rect>
    </defs>
    <g id="Page-1" stroke="none" stroke-width="1" fill="none" fill-rule="evenodd">
        <g id="Artboard" transform="translate(-673.000000, -28.000000)">
            <g id="Jake-Search" transform="translate(673.000000, 28.000000)">
                <mask id="mask-2" fill="white">
                    <use xlink:href="#path-1"></use>
                </mask>
                <g id="Mask" fill-rule="nonzero"></g>
                <g opacity="0.728692416" mask="url(#mask-2)" id="Group">
                    <g transform="translate(246.092783, 325.386230) scale(-1, 1) rotate(-12.000000) translate(-246.092783, -325.386230) translate(18.592783, 31.886230)">
                        <g transform="translate(0.000000, 0.000000)" fill-opacity="0.376610923">
                            <path d="M128.181029,0.420401265 C137.714687,-0.951806527 153.290133,1.74496295 161.967474,5.71864802 C180.207017,14.047187 192.26205,26.6829337 205.734764,40.9767649 C221.281667,57.4813753 228.845796,66.8867162 241.719088,85.5639889 C247.151941,93.4446545 249.949241,101.668372 252.118577,111.197593 C254.459175,121.470093 256.019574,133.781846 255.22986,144.159167 L255.22986,144.159167 L250.177592,210.911359 C281.651983,206.00381 324.268002,208.557642 355.162,216.628892 C362.97351,218.677674 369.576662,221.088567 372.43105,225.786473 C374.326845,228.115526 374.797859,231.296999 373.658416,234.076844 L373.658416,234.076844 L373.572784,234.543776 C372.65938,239.079685 370.394898,241.566811 367.093322,242.634084 C366.328812,248.105286 364.047756,253.252152 360.5092,257.490139 L360.5092,257.490139 L360.287426,257.759689 C357.586767,260.951869 353.480623,262.612014 349.310482,262.178516 L349.310482,262.178516 L349.15056,262.572466 C348.21041,264.788124 346.6966,266.715511 344.762329,268.153386 L344.762329,268.153386 L344.447446,268.372161 C339.273077,271.882069 332.58327,272.283501 327.017546,269.392185 L327.017546,269.392185 L326.720822,269.645007 C320.337674,274.943398 310.593398,274.169405 303.164376,270.097349 C300.575122,269.693176 298.108226,268.716622 295.942773,267.238582 L295.942773,267.238582 L293.901236,267.743135 C276.197495,272.070251 258.224327,275.209422 240.10161,277.139443 L240.10161,277.139443 L239.257083,277.230499 C234.995814,277.694037 230.161193,278.276399 225.058974,278.749882 C227.494719,387.192414 233.688742,560.948226 233.688742,560.948226 C241.053064,568.876538 250.3774,574.59407 250.120505,581.264525 C249.996814,584.399638 246.914075,586.08631 238.293822,586.08631 C230.018379,586.08631 171.200256,586.16535 158.308979,586.171673 L156.943751,586.172073 C144.146576,586.172073 141.425392,578.377171 141.425392,572.831164 C141.425392,567.285158 137.933523,361.654103 137.305558,328.883112 C136.182832,267.896099 134.831755,207.280726 134.831755,207.280726 L134.831755,207.280726 L108.190796,207.747658 C108.190796,207.747658 109.075656,548.66506 109.075656,569.94381 C109.075656,584.056586 101.102398,586.143486 85.4603487,586.143486 L13.3014083,586.143486 C6.01320312,586.143486 5.09979881,578.63446 7.08835611,575.404054 C11.2081901,568.695482 20.1899992,562.2442 20.1899992,562.2442 C19.6857239,531.79834 19.1529047,435.295921 18.991156,419.305888 C18.658144,386.925596 18.4393076,309.843729 19.0767877,268.201034 C17.1643474,269.068193 16.2509431,269.563713 16.1082237,272.517771 C15.2994803,288.345807 14.1101517,296.760109 8.30622852,296.760109 C2.50230531,296.760109 1.17025736,291.747739 0.45666024,283.4192 C0.0570458546,278.387771 -1.08470953,223.070645 2.91143432,182.218875 C6.90757817,141.367106 12.1311091,116.600661 21.5886495,97.608924 C30.456283,79.827398 42.3590829,63.7039565 55.3084919,48.7240214 C68.0200352,34.0109045 78.8191382,24.0147519 95.127211,13.2372032 C103.014838,8.04377789 118.647372,1.79260906 128.181029,0.420401265 Z M262.007641,6.82130457 C266.367181,5.74382425 270.029125,8.1934881 272.717747,11.4266468 C274.097368,13.0847312 275.467475,14.7618741 276.847096,16.4294877 C277.199137,16.8106566 277.541664,17.3061761 277.893705,17.7635786 C281.850696,16.8814223 285.914194,16.5765141 289.958253,16.8583055 L289.958253,16.8583055 L290.472041,16.9020692 C290.814568,16.9345391 291.157094,16.972656 291.499621,17.0107729 C297.420574,17.1550739 303.107753,19.3545991 307.588857,23.2333541 L307.588857,23.2333541 L307.942043,23.5094517 C311.906356,26.6790098 314.558018,31.2153698 315.371823,36.2407406 L315.371823,36.2407406 L315.475828,36.6992668 C317.038002,43.8902709 315.442863,51.4166213 311.080726,57.3574937 L311.080726,57.3574937 L310.688089,58.0544781 C305.79657,66.6191476 299.096372,74.0148893 291.052433,79.7225753 L291.052433,79.7225753 L291.031822,79.7353379 L291.031822,79.7353379 L291.011104,79.7479244 C289.659798,80.5610242 287.906204,80.1230422 287.09435,78.7696546 L287.09435,78.7696546 L286.587258,77.6032779 C285.919864,76.0420104 285.286571,74.4624467 284.677634,72.9377714 C274.506497,75.1961967 263.393411,74.9865539 255.734135,70.2981772 C243.412696,62.7510729 241.985501,40.4526963 261.214565,25.9587515 C259.311639,23.3000989 257.332597,20.5270956 256.381134,17.5825664 C256.346743,17.4854303 256.314165,17.3876615 256.283415,17.2893094 C254.917286,12.9197996 257.346551,8.26849163 261.709322,6.90026705 L261.709322,6.90026705 Z" id="Combined-Shape" fill="#000000" fill-rule="nonzero"></path>
                        </g>
                        <g stroke-linecap="round" stroke-linejoin="round" transform="translate(279.000000, 214.000000)">
                            <path d="M129.284294,2.06735294 C135.643556,0.873529412 175.862888,-5.40617647 175.046982,12.5011765 C174.29507,29.1176471 141.706852,30.2047059 132.403932,30.5735294 C93.1364893,32.1361765 97.128026,8.085 129.284294,2.06735294 Z" id="Path" stroke="#8C8C8C" stroke-width="10"></path>
                            <path d="M4.12190955,31.7867647 C2.62130653,32.0002941 1.27266332,32.2041176 0.113969849,32.3982353" id="Path" stroke="#8C8C8C" stroke-width="10"></path>
                            <path d="M104.082965,19.7514706 C104.529347,19.7514706 101.480653,20.1202941 96.1525628,20.7220588" id="Path" stroke="#8C8C8C" stroke-width="10"></path>
                        </g>
                        <g stroke-linecap="round" stroke-linejoin="round" transform="translate(17.000000, 66.000000)">
                            <path d="M331.6358,196.340584 C326.425625,195.807153 320.482025,192.168394 316.938725,188.386752 C314.309825,185.595766 311.6333,176.251204 316.4339,174.022226" id="Path" stroke="#181818" stroke-width="6"></path>
                            <path d="M309.337775,203.713358 C303.42275,201.512956 294.4502,198.779124 292.040375,192.387482 C289.28765,185.071861 293.5358,178.175365 299.965175,173.65073" id="Path" stroke="#181818" stroke-width="6"></path>
                            <path d="M279.6293,200.331788 C271.275875,197.902774 268.056425,188.501058 269.47565,180.632956 C271.161575,171.278869 281.429525,168.459307 289.792475,170.793066" id="Path" stroke="#181818" stroke-width="6"></path>
                            <path d="M208.829975,83.2437591 C210.5921,93.9123723 209.782475,171.612263 210.5921,209.93354" id="Path" stroke="#181818" stroke-width="6"></path>
                            <path d="M103.9121,0 C87.11,17.8318248 74.813225,39.4643431 64.25,61.5921898 L64.2499868,61.5922166 C59.3259904,71.5790863 55.1149498,81.9020173 51.6484118,92.4835669 C42.9616118,120.212436 42.4091618,149.922618 45.3619118,178.84218 C46.1143868,186.234005 46.3144118,193.682983 44.9428118,200.989078 C44.2951118,204.408749 42.2091368,205.951888 40.4470118,206.494844 C38.6848868,207.0378 34.4176868,205.45656 33.8557118,203.694333" id="Path" stroke="#3741F0" stroke-width="6"></path>
                            <path d="M349.476125,177.861022 C343.589675,178.746898 337.550825,179.423212 331.7501,178.137263 C325.949375,176.851314 320.3201,173.288759 318.062675,167.802044 C315.30995,171.116934 310.8713,172.450511 306.632675,173.384015 C302.041625,174.412774 287.3636,174.022226 284.79185,163.334562" id="Path" stroke="#181818" stroke-width="6"></path>
                        </g>
                    </g>
                </g>
                <g id="BG-Bang-Bang" mask="url(#mask-2)" opacity="0.0479820515">
                    <g transform="translate(130.000000, 426.000000)" id="BG-Shape-8">
                        <path d="M11.5781668,157.749235 C-0.268410168,167.263526 -0.81450979,184.922871 0.493966531,198.745111 C3.19743001,227.693882 14.595232,255.30589 32.432684,278.193224 L32.4326766,278.193215 C40.6306052,288.696493 50.2018392,298.049181 60.8892791,306 L259.323498,306 C262.086438,304.663237 264.189732,302.498438 266.082157,300.100923 C270.407698,294.602335 274.300686,288.73573 278.155825,282.923246 L278.155842,282.92322 C285.976853,271.115109 293.165525,258.899366 299.691415,246.327676 C310.770209,224.993585 322.097721,197.370753 305.94723,175.430518 C297.404285,163.810961 283.535518,159.784436 269.682971,162.869274 C261.648277,164.655233 254.543575,168.584342 248.055263,173.40102 C253.82267,161.812149 259.543199,150.206987 265.216849,138.585644 C273.32724,121.862574 281.188911,104.45218 284.027548,85.9215034 C286.617466,68.9765414 284.660159,50.5378683 272.272889,37.6573159 C260.485788,25.4045552 243.107925,24.2572118 228.12533,30.9572639 C216.770784,36.0283049 208.352199,44.9093916 201.236683,54.8458178 L201.236683,54.8458066 C201.446544,50.9028205 201.196132,46.9487832 200.490527,43.0638895 L200.490528,43.0638924 C198.851656,34.1036282 193.717757,26.1645536 186.221918,20.9988568 C178.760359,15.9656997 169.57399,15.47862 161.47982,19.2561938 C152.926062,23.2556594 146.810827,31.0381108 141.19303,38.3497185 C135.575233,45.6613262 130.379176,53.1948257 125.512942,60.9935131 C119.619392,44.4003309 110.238374,28.7921322 96.6399523,17.4810589 C80.7868425,4.28661066 59.4997711,-2.94922906 38.9372279,1.14224052 C28.9992961,3.12303135 20.4887931,8.65409207 15.6279658,17.6704787 C11.1077749,26.0536618 9.68034615,35.7357241 9.13965345,45.1255385 L9.13965166,45.1255703 C7.90982991,66.9910115 10.0082637,88.91658 15.3630246,110.150712 L15.3630224,110.150703 C19.5338502,126.814728 25.6553782,142.927704 33.600587,158.155115 C26.4904781,154.664393 18.3638669,152.293922 11.5781736,157.749232 L11.5781668,157.749235 Z" id="Path" fill="#FFFFFF" fill-rule="nonzero"></path>
                    </g>
                </g>
            </g>
        </g>
    </g>
</svg>