<svg width="284" height="454" xmlns="http://www.w3.org/2000/svg" xmlns:xlink="http://www.w3.org/1999/xlink"><defs><rect id="a" x="0" y="0" width="284" height="454" rx="14"/></defs><g fill="none" fill-rule="evenodd"><mask id="b" fill="#fff"><use xlink:href="#a"/></mask><g opacity=".488" mask="url(#b)"><g fill-opacity=".377" fill="#000" fill-rule="nonzero"><path d="M-92.11 184.908a121.49 121.49 0 0122.143-38.16 180.421 180.421 0 0116.29-18.226A162.427 162.427 0 01-6.403 96.069c18.466-8.296 66.715-16.898 75.132-18.318 2.523-.422 5.533-.759 8.79-1.02a172.36 172.36 0 0124.725-2.04c11.783-.114 24.43.333 35.669 4.205 10.91 3.757 18.612 11.35 23.56 21.667 7.406 15.468 5.794 41.832 8.491 58.69 11.863-15.03 27.409-28.501 45.54-37.407 3.447-7.26 4.857-14.58 6.449-18.028 1.363-2.953 2.726-6.685 6.632-6.786 7.776-.215 6.766 17.487 5.14 23.59 6.419-.86 12.366-.958 18.663-1.37 4.468-.297 13.792-.076 18.241.188 4.45.263 8.449 1.018 8.749 6.745.3 5.727-7.068 7.154-13.053 7.468-5.985.314-14.653 1.685-14.488 1.793 4.182.836 5.34 3.822 5.793 6.025.824 4.018-.946 7.633-3.907 10.091 3.12 6.889-4.12 15.224-11.52 16.329a13.328 13.328 0 01-7.884-1.593 33.472 33.472 0 01-5.217 1.935c-3.774 1.039-16.9 15.921-24.876 30.506-7.55 13.88-15.073 43.533-49.663 51.233 1.503 9.724 3.387 23.041 4.168 30.432 1.996 18.874 13.445 144.668 13.835 162.517.004.075 7.583 3.987 9.078 4.867 4.085 2.398 5.26 9.01-.843 9.33-6.101.32-46.454 3.227-51.345 3.484-4.89.256-6.602-4.37-6.608-4.48-.685-7.41-3.452-42.561-4.21-52.828-1.393-18.679-3.671-37.27-5.785-55.876-1.06-9.3-2.072-18.608-2.919-27.933-.824-9.14-1.08-18.37-2.466-27.446-1.386-9.076-4.073-27.431-5.798-36.393-1.639-8.504-2.132-17.123-3.612-25.628-1.729-9.947-4.573-19.87-5.332-29.861-4.882 1.07-10.147 1.166-14.846 1.405l-2.325.122a9.539 9.539 0 01-1.913 5.353c3.774.416 4.754 6.356 3.498 8.71-2.21 4.156-7.746 8.031-11.22 10.853a119.641 119.641 0 01-16.705 11.217c.439 15.22.926 30.822 1.447 43.404.792 20.385 2.785 40.763 2.254 61.17-.524 20.02 1.152 70.946 1.385 76.45.214 4.993.333 10.95.443 15.95.13 5.377.247 10.762.57 16.129.107 2.063.837 7.305.804 7.583.003.03.004.06.004.089.008.027.01.055.005.082l-.002-.04c-.044 1.015-.446 7.95-4.362 6.68a5.657 5.657 0 01-.633-.249 4.294 4.294 0 01-1.873.457c-19.406.493-34.901 2.946-54.368 2.4-3.91-.111-5.484-4.33-3.188-7.25a21.126 21.126 0 016.962-5.88c.036-6.034.054-36.086.147-44.984.189-18.244-.486-36.512-1.488-54.708-1.023-18.333-2.2-36.581-2.3-54.955-.063-10.938-.15-25.5-.282-39.205-27.732 9.037-69.325 13.802-86.407-14.147-11.047-17.973-7.252-43.08-.443-61.885zm52.254 16.089c4.506 12.27 15.89 13.645 27.029 10.055a68.94 68.94 0 005.15-1.904c-.32-3.21-.64-6.412-.828-9.608-.572-9.987-.523-19.965-1.172-29.99-.29-4.486-1.16-8.963-1.884-13.447a62.312 62.312 0 00-12.445 6.043c-13.328 8.916-21.169 24.37-15.85 38.851zM65.232 45.78l-5.747.902c.193 12.77-2.892 25.624-14.053 23.134a4.5 4.5 0 01-1.752-.128c-8.27-2.228-12.867-9.667-15.107-17.526-5.522.586-12.1.124-14.574-4.972-3.868-8 6.569-11.809 12.689-13.887.372-6.052 1.977-12.03 6.002-16.171 7.346-7.644 15.959-3.09 20.904 4.006a74.95 74.95 0 0113.22 22.43c.37 1.028-.412 2.027-1.582 2.213z"/></g><g stroke-linecap="round" stroke-linejoin="round" stroke="#181818" stroke-width="6"><path d="M-6.75 207.008s4.34-2.026 6.856-3.37c3.535-1.887 7.212-3.444 10.694-5.431h0a50.057 50.057 0 009.755-6.884c1.792-1.727 1.813-4.877 1.91-7.383.198-4.11.258-8.232.36-12.344.099-3.498-.736-9.82 2.783-12.023 4.907-3.075 9.555 4.694 10.773 8.199 1.327 3.864 1.897 8.423 2.501 12.463.285 1.88.793 5.917.793 5.917s13.109-5.792 15.333-6.521c3.626-1.196 26.887-9.98 30.015-9.38 3.128.602 5.355 4.543 4.42 8.553-.934 4.01-21.316 9.454-21.718 11.652 4.843.297 9.032 4.3 9.173 8.971M-3.47 260.264h0c8.61-2.3 17.065-5.141 25.317-8.506 6.02-2.513 17.726-8.618 25.113-12.394M136.153 116.129c4.315 5.747 13.843 83.208 17.2 120.573M167.702 160.607s-3.14 13.503-4.18 25.497M250.961 151.91h0a21.766 21.766 0 01-15.217 1.487c-2.546-.687-5.073-1.939-6.587-4.106-1.513-2.166-1.716-5.38.072-7.327 1.434-1.57 3.73-1.98 5.854-2.112l9.58-.502M209.728 147.244h0a8.07 8.07 0 01.353 5.024M233.18 165.78h0a9.094 9.094 0 01-5.933-4.649h0a7.393 7.393 0 012.812-9.104"/></g></g></g></svg>